<?xml version="1.0" standalone="no"?>
<!DOCTYPE svg PUBLIC "-//W3C//DTD SVG 20010904//EN"
 "http://www.w3.org/TR/2001/REC-SVG-20010904/DTD/svg10.dtd">
<svg version="1.0" xmlns="http://www.w3.org/2000/svg"
 width="120.000000pt" height="120.000000pt" viewBox="0 0 120.000000 120.000000"
 preserveAspectRatio="xMidYMid meet">
<metadata>
Created by potrace 1.14, written by Peter Selinger 2001-2017
</metadata>
<g transform="translate(0.000000,120.000000) scale(0.100000,-0.100000)"
fill="#000000" stroke="none">
<path d="M276 858 c-128 -282 -160 -352 -161 -358 -1 -3 -20 -44 -42 -92 -23
-48 -44 -97 -48 -108 -6 -20 -3 -20 429 -20 l436 0 16 25 c9 14 14 32 10 40
-3 9 -2 14 3 11 4 -3 18 18 31 47 12 29 38 85 56 126 19 40 31 78 27 84 -4 6
-1 7 7 2 10 -6 12 -4 7 9 -4 9 -3 15 2 12 12 -8 35 50 25 65 -4 8 -3 10 4 5
11 -6 14 0 11 20 0 4 5 10 11 14 7 4 13 19 13 33 1 14 5 23 10 20 4 -2 7 1 7
6 0 18 3 26 17 40 8 7 12 20 9 28 -3 8 -2 12 3 9 5 -3 11 3 14 14 5 20 -1 20
-434 20 l-439 0 -24 -52z"/>
</g>
</svg>
